# File created by Blade
# Date/Time:  Tue Apr 07 20:57:09 2015
# Frame Rate: 120.000 fps
#------------------------------------------------------
:FULLY-SPECIFIED
:DEGREES
321
root -25.636633 33.579251 8.292102 12.052039 -85.631936 -8.950684
Spine -3.302257 -8.182996 -3.169562
Head 26.718649 -5.000386 3.603307
LeftShoulder -14.161723 26.048605 38.507877
LeftArm 100.690317 -59.154088 -69.655091
LeftForeArm 11.393666 -0.000000 29.602557
LeftHand 14.118896 -0.000000 19.900409
LeftHandThumb1 -26.253704 0.000000 33.147579
RightShoulder -11.718339 24.121441 -48.045340
RightArm 44.215460 17.536552 33.318503
RightForeArm -19.635541 0.000000 18.526895
RightHand 16.319445 -0.000000 -26.843760
RightHandThumb1 -24.326973 -0.000000 -32.862282
LeftUpLeg -8.286124 -1.874492 0.284345
LeftLeg 7.159943 -0.000000 -0.000000
LeftFoot -2.242754 -1.248800 -28.421455
LeftToeBase -0.744838 -0.000000 0.000000
RightUpLeg -9.603727 -0.804137 4.624509
RightLeg 15.538669 -0.000000 -0.000000
RightFoot -6.731623 -8.585364 6.946147
RightToeBase -7.725258 -0.000000 0.000000
322
root -25.654741 33.557638 8.279416 10.317020 -85.589191 -6.996027
Spine -3.614358 -8.046537 -3.219832
Head 26.451541 -4.899199 3.596554
LeftShoulder -14.254095 25.610993 38.763797
LeftArm 101.440811 -59.247212 -70.251574
LeftForeArm 11.793329 -0.000000 29.488252
LeftHand 13.923676 0.000000 20.144286
LeftHandThumb1 -26.253704 0.000000 33.147579
RightShoulder -11.865975 24.518728 -48.366191
RightArm 44.537730 17.843852 33.334425
RightForeArm -20.389281 -0.000000 18.285709
RightHand 16.261275 -0.000000 -27.261603
RightHandThumb1 -24.326973 -0.000000 -32.862282
LeftUpLeg -8.568445 -2.268033 0.172086
LeftLeg 7.477645 -0.000000 -0.000000
LeftFoot -2.908407 -1.130710 -28.292921
LeftToeBase -0.737983 -0.000000 0.000000
RightUpLeg -9.167169 -0.893903 4.442152
RightLeg 14.367937 -0.000000 -0.000000
RightFoot -7.016544 -8.232202 7.158083
RightToeBase -6.920069 -0.000000 0.000000
323
root -25.666397 33.534642 8.266996 8.546264 -85.553024 -5.021411
Spine -3.903200 -7.875573 -3.293473
Head 26.162882 -5.040897 3.520291
LeftShoulder -14.256243 25.139935 39.101399
LeftArm 101.588171 -59.480490 -70.316895
LeftForeArm 11.778127 -0.000000 29.507335
LeftHand 13.765215 0.000000 20.508944
LeftHandThumb1 -26.253704 0.000000 33.147579
RightShoulder -11.969792 24.917808 -48.640680
RightArm 44.826094 18.049690 33.187902
RightForeArm -20.607014 -0.000000 17.960465
RightHand 16.374914 -0.000000 -27.736967
RightHandThumb1 -24.326973 -0.000000 -32.862282
LeftUpLeg -8.903777 -2.732974 0.057039
LeftLeg 7.931861 -0.000000 -0.000000
LeftFoot -3.686905 -0.954126 -28.105744
LeftToeBase -0.681463 -0.000000 0.000000
RightUpLeg -8.775737 -0.910808 4.284813
RightLeg 13.279810 -0.000000 -0.000000
RightFoot -7.070769 -8.061403 6.878266
RightToeBase -6.890497 -0.000000 0.000000
324
root -25.670531 33.509414 8.257437 6.866783 -85.524880 -3.153733
Spine -4.144703 -7.694476 -3.332477
Head 25.817587 -5.170229 3.370332
LeftShoulder -14.296174 24.794494 39.289259
LeftArm 103.020961 -59.566910 -71.620813
LeftForeArm 12.492593 0.000000 29.340570
LeftHand 13.486835 -0.000000 20.519080
LeftHandThumb1 -26.253704 0.000000 33.147579
RightShoulder -12.156483 25.438315 -49.021551
RightArm 45.101174 18.115359 33.077985
RightForeArm -20.746538 -0.000000 17.606691
RightHand 16.409347 -0.000000 -28.554515
RightHandThumb1 -24.326973 -0.000000 -32.862282
LeftUpLeg -9.254766 -3.475523 -0.019488
LeftLeg 8.435891 -0.000000 -0.000000
LeftFoot -4.630441 -0.626926 -28.130670
LeftToeBase -0.526267 -0.000000 0.000000
RightUpLeg -8.475589 -0.980007 4.160999
RightLeg 12.361559 -0.000000 -0.000000
RightFoot -7.163848 -7.963547 6.567775
RightToeBase -6.799089 -0.000000 0.000000
325
root -25.670793 33.487547 8.242868 5.525470 -85.453641 -1.648567
Spine -4.334627 -7.560695 -3.354646
Head 25.466291 -5.298936 3.222070
LeftShoulder -14.334649 24.393486 39.437233
LeftArm 104.192019 -59.680238 -72.524213
LeftForeArm 12.619448 -0.000000 29.030743
LeftHand 13.295174 -0.000000 21.184622
LeftHandThumb1 -26.253704 0.000000 33.147579
RightShoulder -12.546022 26.710378 -49.742555
RightArm 45.019127 17.634205 33.293646
RightForeArm -21.181534 -0.000000 17.314936
RightHand 16.381165 -0.000000 -29.233238
RightHandThumb1 -24.326973 -0.000000 -32.862282
LeftUpLeg -9.766938 -4.130137 -0.085478
LeftLeg 9.308660 -0.000000 -0.000000
LeftFoot -5.617718 -0.307235 -27.990246
LeftToeBase -1.171182 -0.000000 0.000000
RightUpLeg -8.106288 -0.795294 4.085279
RightLeg 11.319701 -0.000000 -0.000000
RightFoot -7.206570 -8.248355 6.270852
RightToeBase -6.530624 -0.000000 0.000000
326
root -25.666576 33.465921 8.228574 4.920407 -85.364103 -0.924739
Spine -4.443233 -7.472814 -3.298600
Head 25.074690 -5.417505 3.046588
LeftShoulder -14.419047 24.090278 39.538658
LeftArm 105.598240 -59.758161 -73.695771
LeftForeArm 12.572880 -0.000000 28.733409
LeftHand 13.196796 -0.000000 22.156640
LeftHandThumb1 -26.253704 0.000000 33.147579
RightShoulder -12.862308 27.621030 -50.241907
RightArm 45.257518 17.391952 33.234957
RightForeArm -21.224656 -0.000000 16.867305
RightHand 16.471652 -0.000000 -29.502157
RightHandThumb1 -24.326973 -0.000000 -32.862282
LeftUpLeg -10.325941 -4.887593 -0.082450
LeftLeg 10.348996 -0.000000 -0.000000
LeftFoot -6.783548 -0.007795 -28.042562
LeftToeBase -1.193260 -0.000000 0.000000
RightUpLeg -7.883289 -0.974697 4.098735
RightLeg 10.622506 -0.000000 -0.000000
RightFoot -7.238285 -8.268647 5.869496
RightToeBase -6.383591 -0.000000 0.000000
327
root -25.657501 33.446077 8.215301 4.368898 -85.276837 -0.284864
Spine -4.488373 -7.343627 -3.252385
Head 24.672098 -5.574246 2.890656
LeftShoulder -14.469424 23.810192 39.645649
LeftArm 107.151555 -59.840706 -74.969018
LeftForeArm 12.544902 -0.000000 28.329166
LeftHand 13.360873 -0.000000 24.388049
LeftHandThumb1 -26.253704 0.000000 33.147579
RightShoulder -13.064036 28.093753 -50.635311
RightArm 45.581495 17.677421 33.348428
RightForeArm -21.501795 -0.000000 16.583764
RightHand 16.620436 -0.000000 -29.948008
RightHandThumb1 -24.326973 -0.000000 -32.862282
LeftUpLeg -10.903371 -5.760021 -0.059148
LeftLeg 11.480268 -0.000000 -0.000000
LeftFoot -7.960884 0.444696 -28.059688
LeftToeBase -1.687606 -0.000000 0.000000
RightUpLeg -7.644580 -0.998874 4.098871
RightLeg 9.942690 -0.000000 -0.000000
RightFoot -7.300474 -8.391551 5.692602
RightToeBase -6.205624 -0.000000 0.000000
